<svg xmlns="http://www.w3.org/2000/svg" viewBox="0 0 960 1060" width="960" height="1060">
  <style>
    text { font-family: 'Nunito', 'Quicksand', 'Helvetica Neue', Helvetica, Arial, 'PingFang SC', 'Microsoft YaHei', sans-serif; }
    .title { font-size: 24px; font-weight: 600; }
    .subtitle { font-size: 13px; }
    .label { font-size: 15px; font-weight: 600; }
    .sublabel { font-size: 12px; }
    .box-title { font-size: 14px; font-weight: 600; }
  </style>
  <defs>
    <marker id="arrow-primary" markerWidth="10" markerHeight="7" refX="9" refY="3.5" orient="auto"><polygon points="0 0, 10 3.5, 0 7" fill="#ff9aa2"/></marker>
    <marker id="arrow-loop" markerWidth="10" markerHeight="7" refX="9" refY="3.5" orient="auto"><polygon points="0 0, 10 3.5, 0 7" fill="#b5b9ff"/></marker>
    <filter id="drop-shadow" x="-20%" y="-20%" width="140%" height="140%"><feDropShadow dx="0" dy="4" stdDeviation="6" flood-color="rgba(255, 154, 162, 0.18)" flood-opacity="0.5"/></filter>
  </defs>
  <rect width="960" height="1060" fill="#fff8f3"/>
  <text x="480" y="45" text-anchor="middle" class="title" fill="#5c4b51">Vibe Coding 流程</text>
  <rect x="60" y="80" width="840" height="140" rx="12" ry="12" fill="#fff0e8" stroke="#f4d7c4" stroke-width="1.5" stroke-dasharray="6,4"/>
  <text x="75" y="105" class="box-title" fill="#6b7280">需求探索</text>
  <rect x="60" y="250" width="840" height="140" rx="12" ry="12" fill="#fff0e8" stroke="#f4d7c4" stroke-width="1.5" stroke-dasharray="6,4"/>
  <text x="75" y="275" class="box-title" fill="#6b7280">AI 规划</text>
  <rect x="60" y="420" width="840" height="140" rx="12" ry="12" fill="#fff0e8" stroke="#f4d7c4" stroke-width="1.5" stroke-dasharray="6,4"/>
  <text x="75" y="445" class="box-title" fill="#6b7280">AI 生成</text>
  <rect x="60" y="590" width="840" height="140" rx="12" ry="12" fill="#fff0e8" stroke="#f4d7c4" stroke-width="1.5" stroke-dasharray="6,4"/>
  <text x="75" y="615" class="box-title" fill="#6b7280">反馈迭代</text>
  <rect x="60" y="760" width="840" height="140" rx="12" ry="12" fill="#fff0e8" stroke="#f4d7c4" stroke-width="1.5" stroke-dasharray="6,4"/>
  <text x="75" y="785" class="box-title" fill="#6b7280">部署上线</text>
  <g filter="url(#drop-shadow)">
    <rect x="90" y="135" width="230" height="70" rx="16" ry="16" fill="#ffffff" stroke="#f4c2c2" stroke-width="2"/>
  </g>
  <circle cx="118" cy="170" r="16" fill="#ffe9ec" stroke="#ff9aa2" stroke-width="1.5"/>
  <path d="M 112 165 C 112 161, 116 159, 120 159 C 124 159, 128 161, 128 165 C 128 169, 124 171, 120 171 C 116 171, 112 169, 112 165 Z M 110 177 C 110 173, 116 172, 120 172 C 124 172, 130 173, 130 177 L 130 180 L 110 180 Z" fill="#ff9aa2"/>
  <text x="142" y="168" class="label" fill="#5c4b51">用户想法</text>
  <text x="142" y="187" class="sublabel" fill="#9d8a8f">自然语言描述要做的东西</text>
  <g filter="url(#drop-shadow)">
    <rect x="360" y="135" width="230" height="70" rx="16" ry="16" fill="#ffffff" stroke="#f4c2c2" stroke-width="2"/>
  </g>
  <circle cx="388" cy="170" r="16" fill="#ffe9ec" stroke="#ff9aa2" stroke-width="1.5"/>
  <rect x="380" y="163" width="16" height="12" rx="3" fill="none" stroke="#ff9aa2" stroke-width="1.5"/>
  <path d="M 384 175 L 388 171 L 384 171" fill="#ff9aa2"/>
  <text x="412" y="168" class="label" fill="#5c4b51">头脑风暴</text>
  <text x="412" y="187" class="sublabel" fill="#9d8a8f">brainstorming / grill-me</text>
  <g filter="url(#drop-shadow)">
    <rect x="630" y="135" width="230" height="70" rx="16" ry="16" fill="#ffffff" stroke="#f4c2c2" stroke-width="2"/>
  </g>
  <circle cx="658" cy="170" r="16" fill="#e6e6fa" stroke="#b5b9ff" stroke-width="1.5"/>
  <path d="M 653 166 C 653 162, 657 159, 662 159 C 665 159, 668 161, 669 164 C 671 163, 673 165, 673 168 C 673 171, 670 173, 667 173 C 665 176, 661 177, 657 176 C 654 174, 653 171, 653 168 Z" fill="#b5b9ff"/>
  <text x="682" y="168" class="label" fill="#5c4b51">需求澄清</text>
  <text x="682" y="187" class="sublabel" fill="#9d8a8f">拆 MVP、明确边界、排优先级</text>
  <g filter="url(#drop-shadow)">
    <rect x="90" y="305" width="230" height="70" rx="16" ry="16" fill="#ffffff" stroke="#f4c2c2" stroke-width="2"/>
  </g>
  <circle cx="118" cy="340" r="16" fill="#e6e6fa" stroke="#b5b9ff" stroke-width="1.5"/>
  <path d="M 113 336 C 113 332, 117 329, 122 329 C 125 329, 128 331, 129 334 C 131 333, 133 335, 133 338 C 133 341, 130 343, 127 343 C 125 346, 121 347, 117 346 C 114 344, 113 341, 113 338 Z" fill="#b5b9ff"/>
  <text x="142" y="338" class="label" fill="#5c4b51">意图解析</text>
  <text x="142" y="357" class="sublabel" fill="#9d8a8f">LLM 理解需求、拆任务</text>
  <g filter="url(#drop-shadow)">
    <rect x="360" y="305" width="230" height="70" rx="16" ry="16" fill="#ffffff" stroke="#f4c2c2" stroke-width="2"/>
  </g>
  <circle cx="388" cy="340" r="16" fill="#e0f7fa" stroke="#80deea" stroke-width="1.5"/>
  <path d="M 382 338 L 386 342 L 382 346 M 394 338 L 390 342 L 394 346" stroke="#80deea" stroke-width="2" fill="none" stroke-linecap="round" stroke-linejoin="round"/>
  <text x="412" y="338" class="label" fill="#5c4b51">技术架构选型</text>
  <text x="412" y="357" class="sublabel" fill="#9d8a8f">前端 / 后端 / 数据库</text>
  <g filter="url(#drop-shadow)">
    <rect x="630" y="305" width="230" height="70" rx="16" ry="16" fill="#ffffff" stroke="#f4c2c2" stroke-width="2"/>
  </g>
  <circle cx="658" cy="340" r="16" fill="#e3f2fd" stroke="#90caf9" stroke-width="1.5"/>
  <path d="M 658 330 Q 663 336, 663 342 Q 663 347, 660 348 L 656 348 Q 653 347, 653 342 Q 653 336, 658 330 Z" fill="#90caf9"/>
  <circle cx="658" cy="341" r="2" fill="#ffffff"/>
  <path d="M 655 348 L 657 354 L 658 351 L 659 354 L 661 348 Z" fill="#f97316"/>
  <text x="682" y="338" class="label" fill="#5c4b51">产品形态定型</text>
  <text x="682" y="357" class="sublabel" fill="#9d8a8f">小程序 / H5 / App / 自动化工具</text>
  <g filter="url(#drop-shadow)">
    <rect x="90" y="475" width="230" height="70" rx="16" ry="16" fill="#ffffff" stroke="#f4c2c2" stroke-width="2"/>
  </g>
  <circle cx="118" cy="510" r="16" fill="#e0f7fa" stroke="#80deea" stroke-width="1.5"/>
  <path d="M 112 508 L 116 512 L 112 516 M 124 508 L 120 512 L 124 516" stroke="#80deea" stroke-width="2" fill="none" stroke-linecap="round" stroke-linejoin="round"/>
  <text x="142" y="508" class="label" fill="#5c4b51">生成代码</text>
  <text x="142" y="527" class="sublabel" fill="#9d8a8f">自动写出可运行代码</text>
  <g filter="url(#drop-shadow)">
    <rect x="360" y="475" width="230" height="70" rx="16" ry="16" fill="#ffffff" stroke="#f4c2c2" stroke-width="2"/>
  </g>
  <circle cx="388" cy="510" r="16" fill="#fff9c4" stroke="#fff176" stroke-width="1.5"/>
  <polygon points="383,504 383,516 395,510" fill="#fff176"/>
  <text x="412" y="508" class="label" fill="#5c4b51">自动运行预览</text>
  <text x="412" y="527" class="sublabel" fill="#9d8a8f">执行、预览、报错兜底</text>
  <g filter="url(#drop-shadow)">
    <rect x="630" y="475" width="230" height="70" rx="16" ry="16" fill="#ffffff" stroke="#f4c2c2" stroke-width="2"/>
  </g>
  <circle cx="658" cy="510" r="16" fill="#e8f5e9" stroke="#a5d6a7" stroke-width="1.5"/>
  <path d="M 650 510 C 650 510, 656 503, 664 510 C 656 517, 650 510, 650 510 Z M 659 507 C 661 507, 662 509, 662 510 C 662 512, 660 513, 659 513 C 657 513, 656 511, 656 510 C 656 508, 658 507, 659 507 Z" fill="#a5d6a7"/>
  <text x="682" y="508" class="label" fill="#5c4b51">验收检查</text>
  <text x="682" y="527" class="sublabel" fill="#9d8a8f">功能 / 样式 / 边界条件</text>
  <g filter="url(#drop-shadow)">
    <rect x="270" y="645" width="230" height="70" rx="16" ry="16" fill="#ffffff" stroke="#f4c2c2" stroke-width="2"/>
  </g>
  <circle cx="298" cy="680" r="16" fill="#fce4ec" stroke="#f48fb1" stroke-width="1.5"/>
  <path d="M 292 676 C 289 676, 288 679, 290 682 C 292 685, 297 685, 300 682" stroke="#f48fb1" stroke-width="2" fill="none" stroke-linecap="round"/>
  <polygon points="300,682 297,681 297,684" fill="#f48fb1"/>
  <text x="322" y="678" class="label" fill="#5c4b51">反馈迭代</text>
  <text x="322" y="697" class="sublabel" fill="#9d8a8f">满意？继续改 / 加功能</text>
  <g filter="url(#drop-shadow)">
    <rect x="510" y="645" width="230" height="70" rx="16" ry="16" fill="#ffffff" stroke="#f4c2c2" stroke-width="2"/>
  </g>
  <circle cx="538" cy="680" r="16" fill="#ffe9ec" stroke="#ff9aa2" stroke-width="1.5"/>
  <rect x="530" y="673" width="16" height="12" rx="3" fill="none" stroke="#ff9aa2" stroke-width="1.5"/>
  <path d="M 534 685 L 538 681 L 534 681" fill="#ff9aa2"/>
  <text x="562" y="678" class="label" fill="#5c4b51">自然语言反馈</text>
  <text x="562" y="697" class="sublabel" fill="#9d8a8f">这里再口语化一点</text>
  <g filter="url(#drop-shadow)">
    <rect x="90" y="815" width="230" height="70" rx="16" ry="16" fill="#ffffff" stroke="#f4c2c2" stroke-width="2"/>
  </g>
  <circle cx="118" cy="850" r="16" fill="#e3f2fd" stroke="#90caf9" stroke-width="1.5"/>
  <circle cx="115" cy="847" r="2.5" fill="#90caf9"/>
  <circle cx="122" cy="847" r="2.5" fill="#90caf9"/>
  <circle cx="118" cy="854" r="2.5" fill="#90caf9"/>
  <path d="M 115 850 L 118 851 L 122 849" stroke="#90caf9" stroke-width="1.5" fill="none"/>
  <text x="142" y="848" class="label" fill="#5c4b51">上传 Git</text>
  <text x="142" y="867" class="sublabel" fill="#9d8a8f">commit / push / tag</text>
  <g filter="url(#drop-shadow)">
    <rect x="300" y="815" width="230" height="70" rx="16" ry="16" fill="#ffffff" stroke="#f4c2c2" stroke-width="2"/>
  </g>
  <circle cx="328" cy="850" r="16" fill="#fff9c4" stroke="#fff176" stroke-width="1.5"/>
  <rect x="321" y="842" width="14" height="16" rx="2" fill="none" stroke="#fff176" stroke-width="1.5"/>
  <circle cx="325" cy="847" r="1.5" fill="#fff176"/>
  <circle cx="325" cy="853" r="1.5" fill="#fff176"/>
  <text x="352" y="848" class="label" fill="#5c4b51">环境探测</text>
  <text x="352" y="867" class="sublabel" fill="#9d8a8f">OS / 运行时 / 依赖版本</text>
  <g filter="url(#drop-shadow)">
    <rect x="510" y="815" width="230" height="70" rx="16" ry="16" fill="#ffffff" stroke="#f4c2c2" stroke-width="2"/>
  </g>
  <circle cx="538" cy="850" r="16" fill="#fff9c4" stroke="#fff176" stroke-width="1.5"/>
  <rect x="531" y="842" width="14" height="16" rx="2" fill="none" stroke="#fff176" stroke-width="1.5"/>
  <circle cx="535" cy="847" r="1.5" fill="#fff176"/>
  <circle cx="535" cy="853" r="1.5" fill="#fff176"/>
  <text x="562" y="848" class="label" fill="#5c4b51">环境安装</text>
  <text x="562" y="867" class="sublabel" fill="#9d8a8f">Docker / Nginx / 数据库</text>
  <g filter="url(#drop-shadow)">
    <rect x="720" y="815" width="230" height="70" rx="16" ry="16" fill="#ffffff" stroke="#f4c2c2" stroke-width="2"/>
  </g>
  <circle cx="748" cy="850" r="16" fill="#e3f2fd" stroke="#90caf9" stroke-width="1.5"/>
  <path d="M 748 840 Q 753 846, 753 852 Q 753 857, 750 858 L 746 858 Q 743 857, 743 852 Q 743 846, 748 840 Z" fill="#90caf9"/>
  <circle cx="748" cy="851" r="2" fill="#ffffff"/>
  <path d="M 745 858 L 747 864 L 748 861 L 749 864 L 751 858 Z" fill="#f97316"/>
  <text x="772" y="848" class="label" fill="#5c4b51">正式发布</text>
  <text x="772" y="867" class="sublabel" fill="#9d8a8f">域名 / HTTPS / 监控</text>
  <path d="M 320 170 L 355 170" stroke="#ff9aa2" stroke-width="3" fill="none" marker-end="url(#arrow-primary)"/>
  <path d="M 590 170 L 625 170" stroke="#ff9aa2" stroke-width="3" fill="none" marker-end="url(#arrow-primary)"/>
  <path d="M 320 340 L 355 340" stroke="#ff9aa2" stroke-width="3" fill="none" marker-end="url(#arrow-primary)"/>
  <path d="M 590 340 L 625 340" stroke="#ff9aa2" stroke-width="3" fill="none" marker-end="url(#arrow-primary)"/>
  <path d="M 320 510 L 355 510" stroke="#ff9aa2" stroke-width="3" fill="none" marker-end="url(#arrow-primary)"/>
  <path d="M 590 510 L 625 510" stroke="#ff9aa2" stroke-width="3" fill="none" marker-end="url(#arrow-primary)"/>
  <path d="M 500 680 L 505 680" stroke="#ff9aa2" stroke-width="3" fill="none" marker-end="url(#arrow-primary)"/>
  <path d="M 320 850 L 295 850" stroke="#ff9aa2" stroke-width="3" fill="none" marker-end="url(#arrow-primary)"/>
  <path d="M 530 850 L 505 850" stroke="#ff9aa2" stroke-width="3" fill="none" marker-end="url(#arrow-primary)"/>
  <path d="M 740 850 L 715 850" stroke="#ff9aa2" stroke-width="3" fill="none" marker-end="url(#arrow-primary)"/>
  <path d="M 745 205 L 205 300" stroke="#ff9aa2" stroke-width="3" fill="none" marker-end="url(#arrow-primary)"/>
  <path d="M 745 375 L 205 470" stroke="#ff9aa2" stroke-width="3" fill="none" marker-end="url(#arrow-primary)"/>
  <path d="M 745 545 L 385 640" stroke="#ff9aa2" stroke-width="3" fill="none" marker-end="url(#arrow-primary)"/>
  <path d="M 625 715 L 205 810" stroke="#ff9aa2" stroke-width="3" fill="none" marker-end="url(#arrow-primary)"/>
  <path d="M 270 680 C 190 680, 10 340, 85 340" stroke="#b5b9ff" stroke-width="3" fill="none" marker-end="url(#arrow-loop)" stroke-dasharray="6,4"/>
  <text x="180" y="469" text-anchor="middle" class="sublabel" fill="#b5b9ff">不满意继续迭代</text>
</svg>